<svg xmlns="http://www.w3.org/2000/svg" width="1200" height="675" viewBox="0 0 1200 675" role="img" aria-labelledby="title desc"><title id="title">Android Studio Quail 4 and local AI coding</title><desc id="desc">Editorial illustration showing an Android development workspace, curated agent skills, local Gemma 4 assistance and code review concepts.</desc><defs><linearGradient id="bg" x1="0" y1="0" x2="1" y2="1"><stop stop-color="#f8fbff"/><stop offset="1" stop-color="#e8f5ef"/></linearGradient><linearGradient id="panel" x1="0" y1="0" x2="1" y2="1"><stop stop-color="#0f172a"/><stop offset="1" stop-color="#1f3b4d"/></linearGradient></defs><rect width="1200" height="675" rx="34" fill="url(#bg)"/><circle cx="1010" cy="92" r="135" fill="#dff5e7"/><circle cx="110" cy="590" r="150" fill="#e3efff"/><rect x="76" y="78" width="690" height="480" rx="26" fill="url(#panel)"/><rect x="110" y="126" width="622" height="46" rx="12" fill="#213f53"/><circle cx="138" cy="149" r="8" fill="#8ad7a3"/><circle cx="164" cy="149" r="8" fill="#8fbff2"/><circle cx="190" cy="149" r="8" fill="#f5d487"/><text x="224" y="158" font-family="Arial,sans-serif" font-size="20" fill="#e5eef6">Android Studio Quail 4</text><rect x="110" y="200" width="360" height="316" rx="18" fill="#12293a"/><text x="136" y="245" font-family="monospace" font-size="19" fill="#9fdcb1">fun</text><text x="184" y="245" font-family="monospace" font-size="19" fill="#e7edf5"> buildScreen() {</text><text x="136" y="282" font-family="monospace" font-size="19" fill="#8fbff2">  Agent.plan()</text><text x="136" y="319" font-family="monospace" font-size="19" fill="#f5d487">  review(diff)</text><text x="136" y="356" font-family="monospace" font-size="19" fill="#e7edf5">  test()</text><text x="136" y="393" font-family="monospace" font-size="19" fill="#e7edf5">}</text><rect x="496" y="200" width="236" height="150" rx="18" fill="#17364a"/><text x="522" y="238" font-family="Arial,sans-serif" font-weight="700" font-size="21" fill="#ffffff">23 curated skills</text><text x="522" y="274" font-family="Arial,sans-serif" font-size="17" fill="#cde6f5">AGP upgrade</text><text x="522" y="302" font-family="Arial,sans-serif" font-size="17" fill="#cde6f5">Profiler • Navigation</text><text x="522" y="330" font-family="Arial,sans-serif" font-size="17" fill="#cde6f5">Adaptive UI</text><rect x="496" y="370" width="236" height="146" rx="18" fill="#183f35"/><text x="522" y="412" font-family="Arial,sans-serif" font-weight="700" font-size="22" fill="#ffffff">Gemma 4 local</text><text x="522" y="447" font-family="Arial,sans-serif" font-size="17" fill="#d8f0e0">Offline assistance</text><text x="522" y="476" font-family="Arial,sans-serif" font-size="17" fill="#d8f0e0">Source stays local</text><text x="820" y="205" font-family="Arial,sans-serif" font-size="22" font-weight="700" fill="#1f4b3c">LEARNER BRIEFING</text><text x="820" y="255" font-family="Arial,sans-serif" font-size="46" font-weight="800" fill="#102334">Android Studio</text><text x="820" y="309" font-family="Arial,sans-serif" font-size="46" font-weight="800" fill="#102334">Quail 4</text><text x="820" y="360" font-family="Arial,sans-serif" font-size="25" fill="#365565">AI skills, local models</text><text x="820" y="397" font-family="Arial,sans-serif" font-size="25" fill="#365565">and better review habits</text><rect x="820" y="447" width="260" height="58" rx="29" fill="#1f7a4d"/><text x="858" y="484" font-family="Arial,sans-serif" font-size="20" font-weight="700" fill="#ffffff">Forsk Coding School</text></svg>