<svg xmlns="http://www.w3.org/2000/svg" width="1200" height="675" viewBox="0 0 1200 675" role="img" aria-labelledby="title desc"><title id="title">AI-assisted code review learner illustration</title><desc id="desc">A code diff moving through automated review, testing and human verification.</desc><defs><linearGradient id="bg" x1="0" y1="0" x2="1" y2="1"><stop stop-color="#0f172a"/><stop offset="1" stop-color="#312e81"/></linearGradient></defs><rect width="1200" height="675" rx="32" fill="url(#bg)"/><circle cx="1040" cy="110" r="150" fill="#6366f1" opacity=".18"/><circle cx="140" cy="590" r="190" fill="#22c55e" opacity=".12"/><rect x="90" y="115" width="600" height="430" rx="28" fill="#0b1220" stroke="#475569" stroke-width="2"/><rect x="125" y="155" width="230" height="18" rx="9" fill="#94a3b8" opacity=".65"/><rect x="125" y="205" width="500" height="14" rx="7" fill="#ef4444" opacity=".75"/><rect x="125" y="235" width="455" height="14" rx="7" fill="#22c55e" opacity=".8"/><rect x="125" y="285" width="520" height="14" rx="7" fill="#64748b"/><rect x="125" y="315" width="420" height="14" rx="7" fill="#64748b"/><rect x="125" y="365" width="485" height="14" rx="7" fill="#64748b"/><rect x="125" y="395" width="365" height="14" rx="7" fill="#64748b"/><rect x="125" y="445" width="175" height="46" rx="14" fill="#22c55e"/><text x="212" y="475" fill="#052e16" font-family="Arial,sans-serif" font-size="20" text-anchor="middle" font-weight="700">TEST PASS</text><path d="M735 210h115" stroke="#a5b4fc" stroke-width="10" stroke-linecap="round"/><path d="M825 185l35 25-35 25" fill="none" stroke="#a5b4fc" stroke-width="10" stroke-linecap="round" stroke-linejoin="round"/><rect x="870" y="120" width="245" height="180" rx="28" fill="#eef2ff"/><text x="992" y="178" fill="#312e81" font-family="Arial,sans-serif" font-size="24" text-anchor="middle" font-weight="700">AI REVIEW</text><text x="992" y="220" fill="#475569" font-family="Arial,sans-serif" font-size="19" text-anchor="middle">Analyze</text><text x="992" y="250" fill="#475569" font-family="Arial,sans-serif" font-size="19" text-anchor="middle">Validate</text><path d="M992 325v72" stroke="#a5b4fc" stroke-width="10" stroke-linecap="round"/><path d="M967 372l25 35 25-35" fill="none" stroke="#a5b4fc" stroke-width="10" stroke-linecap="round" stroke-linejoin="round"/><rect x="830" y="420" width="325" height="135" rx="28" fill="#ecfdf5"/><text x="992" y="472" fill="#166534" font-family="Arial,sans-serif" font-size="24" text-anchor="middle" font-weight="700">HUMAN VERIFY</text><text x="992" y="510" fill="#475569" font-family="Arial,sans-serif" font-size="18" text-anchor="middle">Read the diff • run tests • decide</text><text x="90" y="70" fill="#fff" font-family="Arial,sans-serif" font-size="34" font-weight="700">Modern Code Review = AI Feedback + Verification</text></svg>